<?xml version="1.0" standalone="no"?>
<!DOCTYPE svg PUBLIC "-//W3C//DTD SVG 20010904//EN"
 "http://www.w3.org/TR/2001/REC-SVG-20010904/DTD/svg10.dtd">
<svg version="1.0" xmlns="http://www.w3.org/2000/svg"
 width="1093.000000pt" height="189.000000pt" viewBox="0 0 1093.000000 189.000000"
 preserveAspectRatio="xMidYMid meet">

<g transform="translate(0.000000,189.000000) scale(0.100000,-0.100000)"
fill="#000000" stroke="none">
<path d="M6483 1866 l-28 -24 -3 -260 -3 -260 -30 15 c-24 12 -72 14 -267 11
-237 -3 -237 -3 -294 -31 -70 -34 -113 -84 -136 -157 -14 -45 -17 -96 -17
-290 l0 -235 33 -68 c23 -47 46 -77 75 -98 71 -51 117 -59 362 -59 250 0 285
6 363 64 61 44 87 100 101 216 16 122 14 1094 -2 1140 -21 61 -102 80 -154 36z
m101 -15 c3 -5 -12 -9 -34 -9 -23 -1 -38 3 -35 9 8 12 62 12 69 0z m-205 -527
c70 -14 19 -19 -202 -19 -210 0 -237 -2 -289 -21 -36 -13 -54 -16 -47 -8 12
14 87 41 134 47 51 7 371 7 404 1z m60 -666 c-19 -46 -55 -53 -264 -53 -104 0
-202 3 -217 8 -51 14 -58 45 -58 267 0 224 6 250 61 269 19 7 113 11 239 11
162 0 210 3 226 14 19 14 19 10 22 -237 1 -167 -1 -261 -9 -279z m-264 -78
c110 0 216 4 235 10 32 9 33 9 17 -8 -16 -15 -43 -17 -252 -17 -209 0 -236 2
-252 17 -16 17 -15 17 17 8 19 -6 125 -10 235 -10z"/>
<path d="M8717 1639 c-32 -19 -59 -87 -52 -130 17 -98 158 -130 213 -49 24 36
30 106 12 141 -23 42 -127 65 -173 38z m106 -21 c15 -11 9 -13 -38 -13 -47 0
-53 2 -38 13 9 6 26 12 38 12 12 0 29 -6 38 -12z"/>
<path d="M1880 1344 c-95 -41 -138 -128 -189 -384 -32 -161 -50 -234 -56 -228
-4 4 -32 131 -65 292 -32 159 -96 273 -174 310 -70 33 -169 13 -222 -46 -59
-63 -135 -272 -208 -568 -51 -206 -56 -250 -27 -279 31 -31 84 -37 123 -14 26
15 34 29 45 73 57 233 125 458 175 579 29 68 32 72 45 55 21 -28 51 -134 79
-274 30 -156 48 -212 86 -272 48 -76 135 -107 211 -74 76 32 118 116 162 328
47 223 74 311 91 297 27 -23 135 -313 175 -474 11 -44 31 -115 45 -157 23 -71
28 -78 60 -88 20 -7 44 -10 54 -7 18 4 19 -5 22 -153 3 -143 5 -161 24 -187
39 -53 134 -39 160 23 10 23 14 79 14 184 0 149 0 151 21 140 13 -8 101 -10
267 -8 244 3 248 3 304 30 67 31 110 84 136 167 25 82 24 485 -1 551 -31 80
-65 118 -136 153 l-66 32 -250 0 c-239 0 -252 -1 -299 -23 -77 -35 -112 -67
-142 -129 -27 -55 -28 -64 -32 -242 l-5 -185 -59 179 c-68 207 -113 299 -173
354 -63 58 -130 73 -195 45z m-519 -25 c19 -7 41 -18 49 -26 11 -10 3 -9 -34
3 -39 14 -57 15 -95 6 -56 -13 -66 -7 -20 12 42 19 57 19 100 5z m650 -5 c37
-19 33 -29 -5 -14 -35 13 -87 13 -123 0 l-28 -10 24 20 c28 24 90 26 132 4z
m966 6 c63 -8 162 -44 151 -55 -2 -2 -30 6 -63 18 -55 20 -79 22 -285 22 -228
-1 -228 -1 -325 -41 -18 -7 -18 -6 -7 9 16 19 67 37 136 47 74 11 309 11 393
0z m36 -183 c16 -10 32 -29 37 -43 14 -35 13 -407 -1 -437 -22 -48 -39 -52
-284 -57 -126 -3 -236 -9 -243 -13 -11 -7 -12 41 -10 257 3 297 2 292 75 307
21 4 119 7 218 6 156 -2 185 -5 208 -20z m27 -552 c-7 -8 -26 -17 -44 -20 -48
-7 -456 -11 -456 -4 0 4 102 9 228 11 133 3 237 9 252 16 33 14 34 14 20 -3z"/>
<path d="M182 1331 c-91 -31 -148 -102 -171 -209 -16 -76 -14 -423 3 -495 18
-75 55 -130 112 -163 79 -46 135 -54 417 -54 316 0 327 3 327 100 0 49 -25 79
-75 90 -22 5 -151 10 -287 10 l-246 0 -31 26 c-31 26 -31 27 -31 125 l0 99 33
-20 c30 -19 50 -20 298 -20 259 0 267 1 310 23 67 36 99 104 99 212 0 132 -39
209 -132 260 l-53 30 -260 2 c-232 3 -266 1 -313 -16z m580 -25 c26 -10 52
-24 58 -31 7 -9 -8 -5 -42 8 -50 21 -69 22 -303 22 -239 0 -252 -1 -299 -23
-60 -27 -74 -22 -17 7 69 36 108 40 336 37 181 -2 228 -6 267 -20z m-59 -157
c34 -15 49 -48 45 -95 l-3 -39 -251 -5 c-230 -5 -254 -7 -273 -24 l-21 -19 0
70 c0 75 9 91 60 112 35 14 413 14 443 0z m57 -169 c0 -6 -84 -10 -232 -10
-128 0 -243 -3 -255 -6 -13 -4 -23 -2 -23 4 0 17 31 19 278 21 149 1 232 -3
232 -9z m-255 -397 c257 -3 305 -6 305 -21 0 -8 -462 -5 -526 3 -23 3 -50 13
-60 21 -18 15 -18 15 1 8 11 -5 137 -10 280 -11z"/>
<path d="M3614 1334 c-131 -31 -223 -117 -266 -248 -22 -67 -23 -85 -23 -349
l0 -279 28 -24 c30 -26 83 -32 118 -13 38 20 43 55 49 335 l5 271 28 42 c50
75 87 85 322 89 110 1 212 7 226 13 30 12 49 46 49 89 0 83 -23 90 -272 89
-140 0 -222 -5 -264 -15z m469 -16 c14 -11 -23 -13 -195 -13 -227 -1 -301 -12
-378 -57 l-35 -20 19 21 c26 29 116 60 200 70 118 14 370 13 389 -1z"/>
<path d="M4315 1341 c-77 -19 -140 -75 -177 -156 -22 -48 -23 -60 -23 -305 l0
-255 35 -64 c57 -106 128 -144 268 -145 80 -1 85 0 108 27 35 41 34 108 -2
136 -22 17 -41 21 -109 21 -121 0 -115 -14 -115 283 0 210 2 248 16 261 13 14
51 16 263 16 227 0 249 -2 264 -18 15 -16 17 -50 17 -265 0 -296 10 -277 -145
-277 -96 0 -103 -1 -126 -26 -37 -40 -33 -98 10 -136 l34 -31 96 6 c53 4 113
11 133 17 62 18 120 69 153 135 l30 60 0 260 c0 244 -1 263 -21 305 -26 54
-74 104 -128 133 -39 21 -55 22 -296 24 -140 1 -268 -2 -285 -6z m505 -22 c43
-10 115 -47 107 -55 -2 -2 -26 6 -53 18 -47 22 -61 23 -294 23 -233 0 -247 -1
-294 -23 -27 -12 -51 -21 -52 -19 -7 7 82 51 116 58 56 11 420 10 470 -2z
m-330 -749 c8 -5 12 -11 10 -13 -10 -7 -110 5 -110 14 0 12 81 11 100 -1z
m290 1 c0 -5 -36 -11 -80 -13 -74 -3 -99 3 -67 15 22 9 147 7 147 -2z"/>
<path d="M6882 1331 c-91 -31 -148 -102 -171 -209 -16 -76 -14 -423 3 -495 18
-75 55 -130 112 -163 79 -46 135 -54 417 -54 316 0 327 3 327 100 0 49 -25 79
-75 90 -22 5 -151 10 -287 10 l-246 0 -31 26 c-31 26 -31 27 -31 125 l0 99 33
-20 c30 -19 50 -20 298 -20 259 0 267 1 310 23 67 36 99 104 99 212 0 132 -39
209 -132 260 l-53 30 -260 2 c-232 3 -266 1 -313 -16z m580 -25 c26 -10 52
-24 58 -31 7 -9 -8 -5 -42 8 -50 21 -69 22 -303 22 -239 0 -252 -1 -299 -23
-54 -25 -71 -24 -31 2 58 38 121 46 350 43 180 -3 229 -7 267 -21z m-59 -157
c34 -15 49 -48 45 -95 l-3 -39 -251 -5 c-230 -5 -254 -7 -273 -24 l-21 -19 0
70 c0 75 9 91 60 112 35 14 413 14 443 0z m57 -169 c0 -6 -84 -10 -232 -10
-128 0 -243 -3 -255 -6 -13 -4 -23 -2 -23 4 0 17 31 19 278 21 149 1 232 -3
232 -9z m-255 -397 c257 -3 305 -6 305 -21 0 -8 -462 -5 -526 3 -23 3 -50 13
-60 21 -18 15 -18 15 1 8 11 -5 137 -10 280 -11z"/>
<path d="M8714 1331 c-32 -19 -64 -82 -64 -124 0 -12 9 -39 20 -60 18 -34 20
-56 20 -267 0 -212 -2 -232 -20 -262 -25 -41 -25 -71 -1 -123 25 -55 53 -77
103 -82 112 -11 188 98 139 200 -19 40 -21 59 -21 271 0 207 2 230 20 266 24
48 25 81 3 127 -30 64 -135 93 -199 54z m126 -21 c11 -7 2 -9 -30 -8 -25 1
-56 -2 -70 -7 -22 -7 -23 -6 -11 9 15 18 86 22 111 6z"/>
<path d="M7850 1325 c-102 -32 -158 -113 -167 -243 -7 -100 14 -178 63 -231
65 -73 77 -75 371 -81 234 -4 264 -7 280 -23 21 -21 25 -99 5 -119 -10 -10
-85 -14 -308 -18 l-296 -5 -29 -33 c-37 -41 -39 -89 -5 -129 l24 -28 314 0
c297 0 315 1 358 21 105 49 156 142 148 269 -6 97 -37 160 -100 202 -68 45
-122 53 -367 53 -266 0 -264 -1 -259 100 3 57 6 66 28 77 18 9 99 13 298 13
l273 0 24 25 c37 36 35 97 -4 136 l-29 29 -289 -1 c-217 0 -299 -4 -333 -14z
m588 -12 c80 -13 12 -18 -261 -18 -253 0 -298 -3 -336 -18 -24 -9 -46 -16 -48
-13 -7 6 66 37 110 46 46 9 482 12 535 3z m-273 -382 c222 -5 265 -9 293 -24
45 -25 40 -28 -15 -9 -43 14 -219 22 -499 22 -22 0 -49 7 -60 16 -19 15 -19
16 1 8 11 -4 137 -10 280 -13z m237 -353 c-10 -10 -91 -14 -307 -18 -251 -4
-309 -2 -292 12 1 1 130 5 287 8 157 3 294 7 305 8 15 2 16 -1 7 -10z"/>
<path d="M10030 1320 c-19 -19 -20 -33 -20 -414 0 -216 3 -408 6 -426 14 -66
117 -91 168 -40 20 20 21 30 24 367 l3 346 177 -6 c97 -3 193 -10 212 -16 44
-13 93 -62 117 -116 16 -35 18 -67 15 -272 -3 -290 9 -333 93 -333 38 0 84 27
95 56 13 34 13 467 0 535 -24 126 -109 248 -204 293 -81 38 -152 46 -418 46
-235 0 -249 -1 -268 -20z m595 -26 c57 -14 151 -61 142 -70 -2 -2 -35 10 -73
28 l-69 33 -280 3 c-158 2 -284 7 -289 13 -6 5 87 9 250 9 203 0 273 -3 319
-16z"/>
<path d="M9241 1308 c-80 -11 -129 -36 -175 -90 -62 -72 -71 -120 -71 -383 0
-202 2 -236 19 -279 25 -66 85 -128 149 -157 48 -21 69 -23 255 -27 229 -5
264 -1 298 33 l24 24 0 -74 c0 -41 -5 -86 -12 -100 -23 -51 -45 -55 -325 -55
-271 0 -322 -6 -348 -43 -17 -25 -20 -79 -4 -109 22 -42 63 -48 316 -48 131 0
269 5 307 10 124 18 208 82 243 185 15 44 17 99 16 460 0 347 -3 418 -16 465
-31 105 -112 169 -238 190 -77 12 -348 11 -438 -2z m510 -44 c26 -12 49 -27
53 -32 4 -6 -15 -1 -41 11 -45 21 -61 22 -298 22 -239 0 -252 -1 -299 -23 -58
-26 -71 -23 -23 7 56 35 103 40 337 38 206 -2 229 -4 271 -23z m-62 -158 c48
-25 51 -46 51 -331 l0 -264 -25 24 c-24 25 -26 25 -217 25 -211 0 -257 8 -288
47 -19 24 -20 39 -20 237 0 227 4 246 54 266 11 5 110 9 219 9 153 1 204 -2
226 -13z m-239 -564 c118 -2 219 -8 225 -13 13 -13 -380 -12 -427 1 -21 6 -40
16 -44 22 -5 8 -2 9 12 3 10 -5 116 -11 234 -13z m269 -358 c-9 -8 -34 -20
-55 -24 -50 -12 -586 -12 -559 0 11 5 139 9 285 10 193 1 275 5 300 14 47 18
46 18 29 0z"/>
</g>
</svg>
